<svg height="512" viewBox="0 0 58 60" width="512" xmlns="http://www.w3.org/2000/svg"><g id="Page-1" fill="none" fill-rule="evenodd"><g id="029---Webcam" fill-rule="nonzero"><g id="Icons_copy" transform="translate(0 1)"><path id="Shape" d="m56.81 56.2c-.79 2-2.75 1.98-4.56 1.59-.54-.12-1.06-.27-1.54-.41-2.96-.86-5.86-1.96-8.89-2.57-3.4630528-.6799979-6.9934069-.9551776-10.52-.82h-.3c-.56 0-1.15.01-1.76.01-.0796875.0099995-.1603125.0099995-.24 0-.0796875.0100005-.1603125.0100005-.24 0-.26 0-.51 0-.76-.01h-.14c-1.22 0-2.34-.02-3.43 0h-.19c-2.707307.0035235-5.4074528.2782281-8.06.82-3.03.61-5.93 1.71-8.89 2.57-1.38.41-3.19.91-4.54.41-.73151921-.270183-1.30379849-.8534676-1.56-1.59-1.68-4.3 8.09-13.69 11.08-16.43h33.46c2.99 2.74 12.76 12.13 11.08 16.43z" fill="#7facfa"/><path id="Shape" d="m53.81 56.2c-.2562015.7365324-.8284808 1.319817-1.56 1.59-1.35.5-3.16 0-4.54-.41-2.96-.86-5.86-1.96-8.89-2.57-2.4757544-.5063239-4.9933044-.780844-7.52-.82h-.3c-.97-.02-1.95-.01-3 0h-.14c-.52 0-1.06.01-1.62.01-.0796875.0099995-.1603125.0099995-.24 0-.0796875.0100005-.1603125.0100005-.24 0-.46 0-.9-.01-1.33-.01h-.19c-3.7060155-.1580166-7.4178079.1171796-11.06.82-3.03.61-5.93 1.71-8.89 2.57-.48.14-1 .29-1.54.41-.73151921-.270183-1.30379849-.8534676-1.56-1.59-1.68-4.3 8.09-13.69 11.08-16.43h30.46c2.99 2.74 12.76 12.13 11.08 16.43z" fill="#a4c2f7"/><path id="Shape" d="m51.45 28.96c-2.3212357 10.5374523-11.6599104 18.0416702-22.45 18.04-.5 0-1-.02-1.5-.05-10.2096042-.6639877-18.75040508-7.9980693-20.95-17.99 2.53432508-.2778329 4.4525216-2.4199789 4.4499542-4.9694864-.0025675-2.5495074-1.92507468-4.6877856-4.4599542-4.9605136 1.29929279-5.8956189 4.8709468-11.04110029 9.94-14.32.7858527-.51565667 1.6042267-.97995865 2.45-1.39l1.07 2.66.03.09c.1024514.25459859.3052911.45572701.5607486.55601772.2554575.1002907.5409536.09087931.7892514-.02601772 1.9372817-.85684721 4.0074116-1.37437967 6.12-1.53.5-.05 1-.07 1.5-.07 2.040096-.00316394 4.0669328.32788608 6 .98.55.18 1.09.39 1.62.62.2482978.11689703.5337939.12630842.7892514.02601772.2554575-.10029071.4582972-.30141913.5607486-.55601772l.55-1.36.55-1.39c6.3106867 3.0719081 10.8733534 8.8571781 12.39 15.71-2.5348795.272728-4.4573867 2.4110062-4.4599542 4.9605136-.0025674 2.5495075 1.9156291 4.6916535 4.4499542 4.9694864z" fill="#cad9fc"/><path id="Shape" d="m48.45 28.96c-2.1995949 9.9919307-10.7403958 17.3260123-20.95 17.99-10.2096042-.6639877-18.75040508-7.9980693-20.95-17.99 2.53432508-.2778329 4.4525216-2.4199789 4.4499542-4.9694864-.0025675-2.5495074-1.92507468-4.6877856-4.4599542-4.9605136 1.29929279-5.8956189 4.8709468-11.04110029 9.94-14.32l.52-.71c.21.54 1.47.23 2 0s.45 2.16 1 1.98c1.9330672-.65211392 3.959904-.98316394 6-.98.5 0 1 .02 1.5.07 2.1125884.15562033 4.1827183.67315279 6.12 1.53.2482978.11689703.5337939.12630842.7892514.02601772.2554575-.10029071.4582972-.30141913.5607486-.55601772l.03-.09 1.07-2.66c.8457733.41004135 1.6641473.87434333 2.45 1.39 5.0690532 3.27889971 8.6407072 8.4243811 9.94 14.32-.46 2.97-1.46 2.39-1.46 4.97 0 2.57 0 2 1.45 4.96z" fill="#e8edfc"/><path id="Shape" d="m39.09 3.28-.02.04-1.1 2.75c-.1024514.25459859-.3052911.45572701-.5607486.55601772-.2554575.1002907-.5409536.09087931-.7892514-.02601772-.6277739-.27980573-1.2723531-.52027052-1.93-.72-.8859784-.28352085-1.7918078-.50078621-2.71-.65-.986003-.15264847-1.9822509-.22954009-2.98-.23-2.6235908-.00201168-5.2187922.54291249-7.62 1.6-.2482978.11689703-.5337939.12630842-.7892514.02601772-.2554575-.10029071-.4582972-.30141913-.5607486-.55601772l-.26-.64-.84-2.11-.02-.04c-.1948705-.49985186.0329531-1.06502956.52-1.29 3.0184824-1.31666923 6.2768502-1.99421906 9.57-1.99 3.2917204.00962034 6.5473115.68659278 9.57 1.99.4870469.22497044.7148705.79014814.52 1.29z" fill="#e8edfc"/><path id="Shape" d="m36.25 2.59-.02.04-1.1 2.75c-.0813255.21442211-.2376579.39207255-.44.5-.282397.15009491-.6183305.16116964-.91.03-.585353-.26369003-1.1865088-.49079333-1.8-.68-1.84-.6-3.8-.23-5.82-.23-2.24 0-3.16 1.27-5.16 2l-2.07-3.68-.02-.04c-.1948705-.49985186.0329531-1.06502956.52-1.29 3.0184824-1.31666923 6.2768502-1.99421906 9.57-1.99 1.4323542-.00284202 2.8618605.12772179 4.27.39.8378943.2525729 1.6594476.55648086 2.46.91.4870469.22497044.7148705.79014814.52 1.29z" fill="#fff"/><path id="Shape" d="m42 24c0 3.4478144-1.3696389 6.7544152-3.8076118 9.1923882-2.437973 2.4379729-5.7445738 3.8076118-9.1923882 3.8076118-.5013646.0005201-1.0022944-.0295357-1.5-.09-6.5550373-.7596426-11.5003008-6.3110932-11.5003008-12.91s4.9452635-12.1503574 11.5003008-12.91c.4977056-.0604643.9986354-.0905201 1.5-.09 7.1797017 0 13 5.8202983 13 13z" fill="#7facfa"/><ellipse id="Oval" cx="27.5" cy="24" fill="#a4c2f7" rx="11.5" ry="12.91"/><circle id="Oval" cx="29" cy="24" fill="#e8edfc" r="8"/><circle id="Oval" cx="31.5" cy="21.5" fill="#fff" r="3.5"/><path id="Shape" d="m11 24c.0010196 2.5471598-1.91765012 4.6857221-4.45 4.96-.36667378-1.6278261-.55114132-3.2913879-.55-4.96.00053823-1.6712767.18158819-3.3376069.54-4.97 2.53780799.274451 4.4608523 2.4173951 4.46 4.97z" fill="#e8edfc"/><path id="Shape" d="m52 24c.0011413 1.6686121-.1833262 3.3321739-.55 4.96-2.5343251-.2778329-4.4525216-2.4199789-4.4499542-4.9694864.0025675-2.5495074 1.9250747-4.6877856 4.4599542-4.9605136.3584118 1.6323931.5394618 3.2987233.54 4.97z" fill="#e8edfc"/><g fill="#fff"><path id="Shape" d="m54.2444 57.9857c.0459-.0028.09-.0107.1348-.0149-.0452.0043-.0892.012-.1348.0149z"/><path id="Shape" d="m33.5371 5.0624c-.508-.0404-1.0211-.0624-1.5371-.0624.5171333 0 1.0295.0208 1.5371.0624z"/><path id="Shape" d="m27.43 53.99h-.19c-.1.0011-.1992.0041-.2991.0057.2288-.002.4614-.0032.6829-.0042-.0631-.0004-.1311-.0015-.1938-.0015z"/><path id="Shape" d="m54.8333 57.9031c.0675-.0146.132-.0351.1978-.0537-.0655.0187-.1305.039-.1978.0537z"/><path id="Shape" d="m35.0178 5.243-.0378-.013c-.4087-.0633-.8251-.1068-1.2429-.1444.4306.0395.8584.0892 1.2807.1574z"/><path id="Shape" d="m37.8914 5.9481c-.0677-.0215-.1333-.0475-.2015-.0681-.0048.0027-.0108.0017-.0157.0043.0718.0228.1458.0401.2172.0638z"/><path id="Shape" d="m29.24 54c.61 0 1.2-.01 1.76-.01h-.14c-.52 0-1.06.01-1.62.01z"/><path id="Shape" d="m50.71 57.38c-2.96-.86-5.86-1.96-8.89-2.57-2.4757544-.5063239-4.9933044-.780844-7.52-.82h-.3c-.56 0-1.15.01-1.76.01-.0796875.0099995-.1603125.0099995-.24 0-.0796875.0099995-.1603125.0099995-.24 0-.0738 0-.1433-.0026-.2158-.0029 2.4448328.0507813 4.8800442.322859 7.2758.8129 3.03.61 5.93 1.71 8.89 2.57 1.38.41 3.19.91 4.54.41.0146.0032.0295.005.0443.0082-.5553-.1192-1.097-.2734-1.5843-.4182z"/><path id="Shape" d="m4.19 56.2c-1.68-4.3 8.09-13.69 11.08-16.43h.0114c-2.8543628-3.017667-4.8353655-6.7540386-5.7314-10.81-.36667378-1.6278261-.55114132-3.2913879-.55-4.96.00053823-1.6712767.18158819-3.3376069.54-4.97 1.2992928-5.8956189 4.8709468-11.04110029 9.94-14.32l.52-.71c.0506305.11151242.1470554.19564709.2644.2307.5418-.3241 1.0938-.6348 1.6655-.9107l-.02-.04c-.1948705-.49985186.0329531-1.06502956.52-1.29 2.5151208-1.09538203 5.2006522-1.74778548 7.938-1.9284-.4546-.026-.9067-.0616-1.3679-.0616-3.2931498-.00421906-6.5515176.67333077-9.57 1.99-.4870469.22497044-.7148705.79014814-.52 1.29l.02.04c-.5717.2759-1.1237.5866-1.6655.9107-.1173823-.03502772-.2138475-.11916581-.2645-.2307l-.52.71c-5.0690532 3.27889971-8.64070721 8.4243811-9.94 14.32-.35841181 1.6323931-.53946177 3.2987233-.54 4.97-.00114132 1.6686121.18332622 3.3321739.55 4.96.89603446 4.0559614 2.87703725 7.792333 5.7314 10.81h-.0114c-2.99 2.74-12.76 12.13-11.08 16.43.25620151.7365324.82848079 1.319817 1.56 1.59.98000679.2762173 2.01735169.2757328 2.9971-.0014-.73016025-.2705306-1.30124531-.8531687-1.5571-1.5886z"/></g></g><g id="Layer_2"><path id="Shape" d="m4.043 59.9932c-1.66264094.1344308-3.21041149-.8578316-3.7823-2.4248-1.79-4.58 6.3321-12.9522 11.3331-17.5357.4071995-.3732064 1.0398436-.3456495 1.41305.06155s.3456495 1.0398436-.06155 1.41305c-7.5205 6.8927-11.7685 12.9097-10.8232 15.3291.6015 1.5157 2.247 1.3623 4.8847.5845.9668-.2808 1.9219-.5859 2.878-.8911 1.999793-.6781458 4.0354071-1.2456714 6.0976-1.7 3.7268064-.7178028 7.5244637-.9996303 11.3164-.8398l1.4649.01c.0391805-.0000064.0783232.0024317.1172.0073.079707-.0096836.160293-.0096836.24 0 .038273-.0048773.0768175-.0073155.1154-.0073l1.4649-.01c3.7922772-.159864 7.5902773.1220312 11.3174.84 2.0618908.4542227 4.0971778 1.0217501 6.0966 1.7.9561.3052 1.9112.61 2.8741.89 2.6435.7808 4.289.9327 4.8906-.5874.9433-2.415-3.3047-8.4321-10.8252-15.3247-.4071995-.3732064-.4347564-1.0058504-.06155-1.41305.3732064-.4071995 1.0058505-.4347564 1.41305-.06155 5.001 4.5835 13.1231 12.9556 11.335 17.5313-1.3955 3.5185-5.3906 2.3422-7.3144 1.7749-.9747-.2832-1.9473-.5933-2.92-.9038-1.9298484-.6549568-3.8940429-1.2039752-5.8838-1.6446-3.591763-.6936084-7.2526726-.9621216-10.9072-.8l-1.4219.0089c-.1958894.0058667-.3919106.0058667-.5878 0l-1.4219-.01c-3.6542206-.1615466-7.314765.106962-10.9063.8-1.9900324.4409088-3.9545201.9900921-5.8847 1.6451-.9727.3105-1.9453.6206-2.9239.9052-1.13904678.3817395-2.32608631.6015218-3.5263.6529z" fill="#428dff"/><path id="Shape" d="m19.3678 5.2191c-7.5616161 3.69098908-12.36067616 11.366544-12.3678 19.7809h-2c.00712782-9.1794816 5.2426916-17.55311631 13.4922-21.5791z" fill="#fff"/><g fill="#428dff"><path id="Shape" d="m14.7112 6.9855c.3382647.41867246.9400885.51006952 1.3874.2107 1.0327754-.74892129 2.1263115-1.41025438 3.2692-1.9771l-.8756-1.7982c-1.2473796.61774821-2.4407607 1.33900855-3.5676 2.1562-.2236027.1519756-.3737189.39029517-.4142214.65760452-.0405026.26730935.0322762.53940185.2008214.75079548z"/><path id="Shape" d="m5 25h2c.00220573-4.07573 1.13609167-8.0707972 3.2753-11.54.153-.28.3452-.5357.5235-.8.2883994-.4571379.1768915-1.0591761-.2561-1.3827-.2168959-.1598237-.4902901-.2226993-.75521471-.1736855-.26492464.0490138-.49772703.2055411-.64308529.4323855-.1946.2882-.4023.568-.5707.8729-2.33406018 3.78519-3.57124857 8.1441353-3.5737 12.5911z"/><path id="Shape" d="m13.2036 9.6905c.176694-.18348359.2786019-.42627244.2858-.6809l-.02-.1886c-.0117-.06614345-.0318657-.13050567-.06-.1915-.0187239-.06073353-.0462138-.11840833-.0816-.1712-.0372567-.05573497-.0783213-.10882816-.1229-.1589-.1849914-.19143495-.4377756-.30254649-.7039-.3094-.1356385.00327313-.2694029.03242907-.3941.0859-.3852084.16418718-.6321247.54583917-.624.9645.0076756.13206525.0416751.26126352.1.38.054585.11867561.1325777.22510355.2293.3129.2005113.17160462.4560848.26531491.72.264.2550306-.01169066.4956383-.12163768.6714-.3068z"/><path id="Shape" d="m29 49c-13.2486201-.0149896-23.98501037-10.7513799-24-24 0-.5522847.44771525-1 1-1s1 .4477153 1 1c.00108313 10.8714549 7.9427812 20.1120602 18.6905251 21.7474605 10.747744 1.6354002 21.078515-4.8248261 24.3131297-15.2039302 3.2346148-10.379104-1.5969186-21.56461427-11.3708548-26.3247303-.3293578-.15143448-.550972-.46925261-.5792145-.8306545-.0282424-.3614019.14131-.70978848.4431449-.91054871s.6886819-.22245308 1.0110696-.05669679c10.049413 4.89415938 15.3898641 16.0777507 12.8787986 26.9698601-2.5110656 10.8921094-12.2087859 18.6088025-23.3865986 18.6092399z"/><path id="Shape" d="m20.9541 8.6909c-.2619476.00040433-.5214709-.05016891-.7641-.1489-.5000662-.20231879-.8951357-.60107575-1.0928-1.103l-1.1128-2.793c-.4078871-.99771231.0545571-2.13864465 1.042-2.5708 6.3612094-2.76693508 13.5859906-2.76693508 19.9472 0 .9869875.43216419 1.4496712 1.57223814 1.043 2.57l-1.1133 2.7938c-.1976643.50192425-.5927338.90068121-1.0928 1.103-.5140613.20830671-1.0907019.19877785-1.5976-.0264-4.5981989-2.0117003-9.8276011-2.0117003-14.4258 0-.2624788.11565092-.5461721.17535253-.833.1753zm8.0459-6.6909c-3.1573575-.00562912-6.2815155.64414181-9.1748 1.9082l1.1289 2.79c5.116348-2.26067973 10.9476248-2.26510743 16.0674-.0122l.0254.01 1.1113-2.79c-2.8874494-1.26379448-6.0062969-1.91288747-9.1582-1.906z"/><path id="Shape" d="m29 39c-7.7319865 0-14-6.2680135-14-14s6.2680135-14 14-14 14 6.2680135 14 14c-.0087073 7.7283769-6.2716231 13.9912927-14 14zm0-26c-6.627417 0-12 5.372583-12 12s5.372583 12 12 12 12-5.372583 12-12c-.0073848-6.6243557-5.3756443-11.9926152-12-12z"/><path id="Shape" d="m29 34c-4.9705627 0-9-4.0294373-9-9s4.0294373-9 9-9 9 4.0294373 9 9c-.0055111 4.9682782-4.0317218 8.9944889-9 9zm0-16c-3.8659932 0-7 3.1340068-7 7s3.1340068 7 7 7 7-3.1340068 7-7c-.0044636-3.8641428-3.1358572-6.9955364-7-7z"/><path id="Shape" d="m31.5 27c-2.4852814 0-4.5-2.0147186-4.5-4.5s2.0147186-4.5 4.5-4.5 4.5 2.0147186 4.5 4.5c-.0027556 2.4841391-2.0158609 4.4972444-4.5 4.5zm0-7c-1.3807119 0-2.5 1.1192881-2.5 2.5s1.1192881 2.5 2.5 2.5 2.5-1.1192881 2.5-2.5c-.0014331-1.3801178-1.1198822-2.4985669-2.5-2.5z"/><path id="Shape" d="m6.5488 30.96c-.53221636-.0001699-.97105051-.4171664-.99836304-.9486815s.36646738-.9912964.89586304-1.0460185c2.02578621-.2247042 3.5574553-1.9386355 3.5539391-3.9768428-.00351615-2.0382074-1.54108966-3.7468438-3.5676391-3.9645572-.2636411-.0282879-.50522453-.1602161-.67153904-.366726-.16631452-.2065098-.24371779-.4706619-.21516096-.734274.02512699-.2651393.15627387-.5088916.36368644-.6759551s.47350736-.2432754.73791356-.2113449c3.04331268.3278649 5.3507418 2.8959746 5.3522313 5.9568969s-2.30343916 5.6312765-5.3464313 5.9621031c-.03470753.0037203-.06959387.005523-.1045.0054z"/><path id="Shape" d="m51.4512 30.96c-.0349061.000123-.0697925-.0016797-.1045-.0054-3.0429921-.3308266-5.3479208-2.9011808-5.3464313-5.9621031s2.3089186-5.629032 5.3522313-5.9568969c.5454466-.0529081 1.0318694.3430385 1.0907563.887872.0588869.5448336-.3317013 1.0355695-.8758563 1.100428-2.0265494.2177134-3.5641229 1.9263498-3.5676391 3.9645572-.0035162 2.0382073 1.5281529 3.7521386 3.5539391 3.9768428.5293957.0547221.9231756.5145034.895863 1.0460185-.0273125.5315151-.4661466.9485116-.998363.9486815z"/></g></g></g></g></svg>